<?xml version="1.0" encoding="UTF-8" standalone="no"?><!DOCTYPE svg PUBLIC "-//W3C//DTD SVG 1.1//EN" "http://www.w3.org/Graphics/SVG/1.1/DTD/svg11.dtd"><svg width="100%" height="100%" viewBox="0 0 261 94" version="1.1" xmlns="http://www.w3.org/2000/svg" xmlns:xlink="http://www.w3.org/1999/xlink" xml:space="preserve" xmlns:serif="http://www.serif.com/" style="fill-rule:evenodd;clip-rule:evenodd;stroke-linejoin:round;stroke-miterlimit:2;"><path d="M80.621,31.142l-17.264,-0c-1.101,-4.571 -3.483,-8.261 -7.145,-11.069c-3.662,-2.809 -8.357,-4.213 -14.084,-4.213c-7.434,-0 -13.286,2.698 -17.553,8.095c-4.268,5.397 -6.402,12.886 -6.402,22.468c-0,9.692 2.134,17.306 6.402,22.84c4.267,5.535 10.119,8.302 17.553,8.302c5.672,-0 10.339,-1.267 14.001,-3.8c3.662,-2.533 6.072,-6.195 7.228,-10.986l17.264,-0c-1.156,9.251 -5.121,16.672 -11.895,22.262c-6.773,5.589 -15.612,8.384 -26.515,8.384c-13.107,-0 -23.419,-4.172 -30.936,-12.515c-7.517,-8.343 -11.275,-19.838 -11.275,-34.487c0,-14.428 3.745,-25.772 11.234,-34.032c7.49,-8.261 17.787,-12.391 30.894,-12.391c10.959,0 19.811,2.864 26.557,8.591c6.746,5.727 10.725,13.244 11.936,22.551Zm20.238,60.548l0,-89.955l17.099,-0l0,14.455l1.322,0c1.982,-5.121 5.163,-9.1 9.541,-11.936c4.378,-2.836 9.54,-4.254 15.488,-4.254c6.002,0 11.124,1.432 15.364,4.295c4.24,2.864 7.379,6.829 9.417,11.895l1.404,0c2.313,-4.956 5.906,-8.893 10.78,-11.812c4.874,-2.919 10.394,-4.378 16.562,-4.378c9.086,0 16.149,2.616 21.188,7.847c5.039,5.232 7.558,12.529 7.558,21.89l0,61.953l-17.76,0l0,-57.327c0,-12.06 -5.809,-18.09 -17.429,-18.09c-5.672,-0 -10.257,1.79 -13.754,5.369c-3.496,3.58 -5.245,8.068 -5.245,13.465l0,56.583l-17.429,0l-0,-59.062c-0,-5.066 -1.57,-9.058 -4.709,-11.977c-3.139,-2.919 -7.351,-4.378 -12.638,-4.378c-5.397,-0 -9.913,1.955 -13.547,5.865c-3.635,3.91 -5.452,8.756 -5.452,14.538l0,55.014l-17.76,0Zm150.68,-18.087c4.9,-0 8.878,3.978 8.878,8.877c-0,4.9 -3.978,8.878 -8.878,8.878c-4.9,0 -8.878,-3.978 -8.878,-8.878c0,-4.899 3.978,-8.877 8.878,-8.877Z" style="fill:#f9f9f9;fill-rule:nonzero;"/></svg>